<?xml version="1.0" standalone="no"?>
<!DOCTYPE svg PUBLIC "-//W3C//DTD SVG 20010904//EN"
 "http://www.w3.org/TR/2001/REC-SVG-20010904/DTD/svg10.dtd">
<svg version="1.0" xmlns="http://www.w3.org/2000/svg"
 width="260.000000pt" height="260.000000pt" viewBox="0 0 260.000000 260.000000"
 preserveAspectRatio="xMidYMid meet">
<metadata>
Created by potrace 1.14, written by Peter Selinger 2001-2017
</metadata>
<g transform="translate(0.000000,260.000000) scale(0.100000,-0.100000)"
fill="#000000" stroke="none">
<path d="M800 2526 c0 -2 8 -10 18 -17 15 -13 16 -12 3 4 -13 16 -21 21 -21
13z"/>
<path d="M1280 2526 c0 -2 8 -10 18 -17 15 -13 16 -12 3 4 -13 16 -21 21 -21
13z"/>
<path d="M1760 2526 c0 -2 8 -10 18 -17 15 -13 16 -12 3 4 -13 16 -21 21 -21
13z"/>
<path d="M1995 2510 c3 -5 8 -10 11 -10 2 0 4 5 4 10 0 6 -5 10 -11 10 -5 0
-7 -4 -4 -10z"/>
<path d="M2113 2505 c0 -8 4 -12 9 -9 5 3 6 10 3 15 -9 13 -12 11 -12 -6z"/>
<path d="M253 2495 c0 -8 4 -12 9 -9 5 3 6 10 3 15 -9 13 -12 11 -12 -6z"/>
<path d="M397 2503 c-4 -3 -2 -12 3 -18 7 -9 6 -16 -3 -23 -15 -12 -29 -5 -46
23 -11 19 -12 19 -5 -4 4 -15 2 -21 -4 -17 -6 3 -13 2 -17 -4 -3 -5 -11 -10
-17 -10 -6 0 -3 9 6 19 13 14 14 21 5 27 -7 4 -10 3 -5 -4 8 -14 -41 -52 -60
-45 -8 3 -14 0 -14 -7 0 -6 -4 -9 -9 -6 -4 3 -6 -6 -3 -21 3 -18 1 -24 -7 -19
-6 4 -9 11 -6 16 3 5 1 11 -4 15 -6 3 -9 11 -7 18 1 7 1 9 -1 4 -3 -4 -9 -5
-14 -2 -5 4 -6 -1 -3 -9 3 -9 9 -16 13 -16 4 0 8 -7 8 -15 0 -8 -7 -15 -14
-15 -8 0 -12 4 -9 9 3 5 -1 12 -10 15 -8 3 -12 11 -8 17 4 8 3 9 -5 5 -8 -5
-7 -13 4 -29 21 -29 19 -40 -5 -27 -16 9 -18 8 -14 -5 3 -8 10 -12 15 -9 5 3
9 1 9 -4 0 -15 -28 -22 -33 -9 -2 7 -3 5 -2 -3 0 -8 8 -13 16 -11 8 2 19 4 25
4 6 0 11 7 10 16 0 9 5 15 12 14 6 -2 12 2 12 8 0 5 4 8 9 4 11 -6 25 13 26
35 0 8 9 15 20 15 11 -1 23 4 27 10 5 6 8 5 8 -3 0 -7 4 -11 9 -7 5 3 12 1 16
-5 3 -5 12 -10 18 -10 8 0 8 3 -2 9 -9 6 -10 11 -2 15 6 4 11 2 11 -5 0 -8 5
-8 18 2 14 11 15 11 5 0 -6 -7 -9 -21 -6 -30 3 -9 2 -12 -4 -6 -9 12 -44 12
-62 1 -9 -6 -9 -11 0 -22 8 -10 8 -14 0 -14 -6 0 -11 5 -11 11 0 7 -7 8 -17 4
-10 -4 -24 -8 -30 -8 -15 0 -17 -13 -3 -22 6 -3 10 -11 10 -17 0 -6 -8 -2 -17
8 -19 21 -43 29 -43 16 0 -5 10 -14 23 -20 12 -6 16 -11 10 -11 -7 -1 -13 -8
-13 -16 0 -20 -17 -19 -29 3 -8 13 -12 14 -22 5 -10 -10 -17 -9 -33 5 -15 11
-13 8 4 -12 18 -22 21 -28 8 -23 -10 3 -20 3 -22 -2 -3 -4 0 -8 7 -8 7 0 21
-4 32 -8 14 -5 16 -4 6 3 -11 8 -11 10 0 15 11 4 11 6 1 6 -7 1 -10 6 -7 11 4
6 14 1 25 -12 17 -21 17 -25 4 -45 -8 -14 -10 -23 -4 -23 6 0 13 7 17 16 5 13
7 13 14 2 5 -7 9 -17 9 -23 0 -5 -4 -4 -8 3 -6 9 -14 6 -32 -13 -18 -19 -26
-22 -37 -14 -9 8 -13 8 -13 1 0 -7 -8 -9 -18 -5 -9 3 -14 3 -11 -1 14 -15 69
-15 84 0 8 9 15 11 15 5 0 -5 -4 -12 -10 -16 -5 -3 -7 -12 -3 -20 5 -14 -8
-20 -31 -16 -5 1 -6 -5 -2 -14 3 -9 6 -20 6 -23 0 -4 5 0 10 8 5 8 10 11 10 5
0 -5 -5 -17 -10 -25 -8 -13 -11 -13 -22 -1 -11 12 -10 12 2 5 12 -6 11 -2 -3
19 -9 15 -13 28 -7 28 5 1 14 2 19 3 5 0 13 5 18 10 5 5 -1 7 -15 3 -15 -3
-20 -1 -16 6 3 7 0 5 -8 -4 -7 -9 -18 -14 -25 -12 -6 2 -15 -1 -19 -8 -4 -8
-3 -9 5 -5 13 8 41 -10 41 -27 0 -7 -4 -7 -12 1 -7 7 -16 12 -22 12 -5 0 -2
-6 9 -13 13 -10 15 -16 6 -21 -6 -4 -9 -12 -6 -17 4 -5 1 -9 -6 -9 -7 0 -4 -6
6 -14 19 -14 19 -14 0 -36 -16 -18 -16 -20 -2 -14 10 3 17 1 17 -5 0 -6 -8
-11 -17 -11 -15 0 -15 -1 2 -13 17 -13 17 -15 -6 -30 -13 -10 -19 -17 -13 -17
5 0 15 5 22 12 8 8 12 8 12 1 0 -6 -7 -16 -16 -24 -14 -11 -14 -14 -2 -23 8
-6 15 -27 15 -48 0 -28 -4 -35 -16 -31 -9 3 -8 -1 4 -8 11 -8 23 -14 28 -15 4
-1 9 -3 12 -4 3 -1 11 -3 18 -4 6 0 13 -11 13 -23 1 -12 -2 -20 -6 -18 -4 3
-13 -2 -20 -9 -9 -12 -7 -17 9 -25 20 -11 19 -41 -1 -41 -6 0 -4 7 3 16 12 15
11 16 -10 9 -19 -6 -23 -4 -18 9 3 8 2 18 -4 21 -5 4 -6 11 -3 17 4 6 3 8 -3
5 -5 -3 -10 0 -10 8 0 8 5 11 10 8 6 -3 7 -1 3 5 -10 16 -23 15 -30 -3 -3 -8
1 -21 10 -29 12 -13 11 -17 -8 -30 -12 -9 -18 -16 -12 -16 5 0 15 5 22 12 8 8
12 8 12 1 0 -6 -10 -18 -23 -27 -20 -15 -20 -16 -1 -7 12 6 25 7 29 3 5 -4 5
-1 0 7 -5 9 -4 12 3 7 6 -4 9 -13 5 -22 -3 -8 -2 -14 3 -13 30 5 37 -2 19 -21
-19 -21 -7 -28 13 -8 9 9 12 9 12 0 0 -7 -5 -12 -11 -12 -5 0 -7 -5 -4 -11 4
-5 -1 -19 -11 -30 -9 -10 -13 -19 -8 -19 14 1 44 26 38 33 -3 3 1 4 10 3 8 -1
19 -6 23 -10 4 -4 1 -6 -7 -4 -8 2 -15 -4 -15 -12 0 -8 6 -14 13 -12 8 1 11
-2 7 -8 -5 -8 -13 -6 -25 5 -17 16 -19 15 -28 -2 -6 -10 -10 -21 -11 -25 -1
-5 -1 -9 -2 -10 -6 -20 -3 -48 5 -45 6 2 10 11 8 20 -1 8 2 18 8 22 6 4 8 -3
6 -17 -3 -13 -5 -26 -5 -30 -1 -5 -10 -8 -22 -8 -16 0 -19 4 -14 23 5 17 4 19
-4 7 -8 -12 -10 -11 -8 7 0 12 6 19 12 16 5 -4 7 -3 3 2 -4 4 -2 15 4 24 10
13 10 14 -1 4 -7 -6 -20 -9 -27 -6 -17 6 -18 -9 -3 -24 8 -8 5 -17 -10 -32
-12 -12 -17 -21 -13 -21 4 0 13 5 20 12 8 8 12 8 12 1 0 -6 -7 -16 -16 -24
-14 -11 -14 -14 -2 -23 8 -6 15 -27 15 -48 0 -28 -4 -35 -16 -31 -11 4 -9 0 4
-10 11 -8 27 -14 35 -12 12 2 16 -6 17 -31 1 -33 -9 -44 -22 -24 -4 6 -10 8
-14 6 -4 -3 -8 1 -8 9 0 7 8 12 19 10 19 -4 25 10 8 20 -5 3 -10 2 -10 -4 0
-6 -6 -8 -14 -5 -20 8 -28 -23 -10 -40 12 -13 11 -17 -8 -30 -12 -9 -18 -16
-12 -16 5 0 15 5 22 12 8 8 12 8 12 1 0 -6 -10 -18 -22 -27 -13 -9 -17 -14
-11 -11 29 14 52 14 47 0 -3 -8 -13 -11 -22 -9 -15 5 -15 4 0 -6 11 -6 15 -17
11 -28 -6 -15 -5 -15 10 -3 20 16 23 36 5 25 -10 -5 -10 -4 -1 6 18 19 30 3
15 -20 -13 -22 -3 -27 16 -8 9 9 12 9 12 0 0 -7 -5 -12 -11 -12 -5 0 -7 -5 -4
-11 4 -5 -1 -19 -11 -30 -9 -10 -13 -19 -8 -19 14 1 44 26 38 33 -3 3 1 4 10
3 8 -1 19 -6 23 -10 4 -4 1 -6 -7 -4 -8 2 -15 -4 -15 -12 0 -8 6 -14 13 -12 8
1 11 -2 7 -8 -5 -8 -13 -6 -25 5 -17 16 -19 15 -31 -7 -7 -13 -12 -24 -11 -25
1 -2 2 -4 1 -5 -8 -25 -3 -48 10 -46 10 2 16 -5 17 -19 1 -12 -2 -20 -6 -18
-4 3 -13 -2 -20 -9 -9 -12 -7 -17 9 -25 22 -12 18 -41 -6 -41 -8 0 -11 -5 -8
-10 4 -6 11 -7 17 -4 7 4 8 2 4 -4 -14 -23 -35 -1 -31 34 2 26 -2 38 -18 49
-19 13 -17 20 6 16 5 -1 5 4 1 10 -4 8 -3 9 4 5 6 -4 8 -14 5 -24 -6 -15 -4
-15 15 2 28 24 28 36 1 29 -18 -5 -20 -3 -14 18 5 18 4 20 -4 9 -8 -12 -10
-11 -8 7 0 12 6 19 12 16 5 -4 7 -3 3 2 -4 4 -2 15 4 24 10 13 10 14 -1 4 -7
-6 -20 -9 -27 -6 -17 6 -18 -9 -3 -24 8 -8 5 -17 -10 -32 -12 -12 -17 -21 -13
-21 4 0 13 5 20 12 8 8 12 8 12 1 0 -6 -7 -16 -16 -24 -14 -11 -14 -14 -2 -23
8 -6 15 -27 15 -48 0 -28 -4 -35 -16 -31 -9 3 -8 -1 4 -8 11 -8 23 -14 28 -15
4 -1 9 -3 12 -4 3 -1 11 -3 18 -4 6 0 13 -11 13 -23 1 -12 -2 -20 -6 -18 -4 3
-13 -2 -20 -9 -9 -12 -7 -17 9 -25 20 -11 19 -41 -1 -41 -6 0 -4 7 3 16 12 15
11 16 -10 9 -19 -6 -23 -4 -18 9 3 8 2 18 -4 21 -5 4 -6 11 -3 17 4 6 3 8 -3
5 -5 -3 -10 0 -10 8 0 8 5 11 10 8 6 -3 7 -1 3 5 -10 16 -23 15 -30 -3 -3 -8
1 -21 10 -29 12 -13 11 -17 -8 -30 -12 -9 -18 -16 -12 -16 5 0 15 5 22 12 8 8
12 8 12 1 0 -6 -10 -18 -23 -27 -20 -15 -20 -16 -1 -7 12 6 25 7 29 3 5 -4 5
-1 0 7 -5 9 -4 12 3 7 6 -4 9 -13 5 -22 -3 -8 -2 -14 3 -13 30 5 37 -2 19 -21
-19 -21 -7 -28 13 -8 9 9 12 9 12 0 0 -7 -5 -12 -11 -12 -5 0 -7 -5 -4 -11 4
-5 -1 -19 -11 -30 -9 -10 -13 -19 -8 -19 14 1 44 26 38 33 -3 3 1 4 10 3 8 -1
19 -6 23 -10 4 -4 1 -6 -7 -4 -8 1 -15 -4 -15 -12 0 -8 6 -14 13 -12 8 1 11
-2 7 -8 -5 -8 -13 -6 -25 5 -17 16 -19 15 -31 -7 -7 -13 -12 -24 -11 -25 1 -2
2 -4 1 -5 -6 -20 -3 -48 5 -45 6 2 10 11 8 20 -1 8 2 18 8 22 6 4 8 -3 6 -17
-3 -13 -5 -26 -5 -30 -1 -5 -10 -8 -22 -8 -16 0 -19 4 -14 23 5 17 4 19 -4 7
-8 -12 -10 -11 -8 7 0 12 6 19 12 16 5 -4 7 -3 3 2 -4 4 -2 15 4 24 10 13 10
14 -1 4 -7 -6 -20 -9 -27 -6 -17 6 -18 -9 -3 -24 8 -8 5 -17 -10 -32 -12 -12
-17 -21 -13 -21 4 0 13 5 20 12 8 8 12 8 12 1 0 -6 -7 -16 -16 -24 -14 -11
-14 -14 -2 -23 8 -6 15 -27 15 -48 0 -28 -4 -35 -16 -31 -11 3 -11 1 2 -7 12
-7 15 -16 9 -23 -11 -16 -13 -57 -2 -57 5 0 12 5 15 11 5 6 13 3 22 -10 8 -12
12 -25 8 -30 -3 -6 2 -14 11 -19 15 -9 15 -10 -5 -17 -11 -3 -19 -10 -16 -15
3 -5 0 -12 -6 -16 -7 -4 -9 -3 -6 2 3 6 -3 15 -14 22 -10 7 -19 8 -19 3 0 -5
6 -11 12 -14 10 -3 10 -7 1 -18 -10 -12 -8 -17 6 -26 13 -8 17 -21 15 -40 -3
-26 -3 -26 4 -4 l8 25 19 -25 c37 -46 90 -59 118 -30 10 11 8 13 -10 8 -14 -3
-24 1 -28 11 -3 8 -8 12 -12 9 -3 -4 0 -13 7 -22 10 -12 10 -15 -4 -15 -9 0
-15 3 -15 8 4 26 -1 34 -16 22 -14 -12 -19 -7 -16 13 1 5 -4 5 -10 1 -8 -5 -9
-3 -4 6 6 9 4 11 -6 5 -8 -5 -11 -4 -6 0 4 5 1 18 -7 29 -11 18 -11 23 1 35
13 12 14 11 8 -10 -7 -20 -6 -22 6 -12 10 8 20 9 29 3 11 -7 12 -10 2 -10 -8
0 -10 -5 -6 -12 5 -9 2 -9 -9 1 -9 7 -17 9 -17 4 0 -15 35 -40 53 -37 9 1 19
-2 23 -7 8 -13 41 -11 48 4 3 6 4 4 3 -5 -1 -9 7 -23 18 -31 18 -14 18 -15 -7
-12 -15 2 -29 -2 -31 -9 -3 -6 3 -12 13 -12 10 0 16 4 13 9 -3 5 0 7 8 5 8 -3
13 -11 11 -18 -2 -10 0 -11 11 -2 8 7 17 9 20 5 4 -3 7 -1 7 4 0 18 33 8 41
-13 7 -19 8 -19 8 0 1 11 4 16 8 13 3 -4 12 -2 19 4 8 7 14 7 19 -1 3 -5 1
-10 -5 -10 -6 0 -8 -5 -5 -10 4 -6 12 -4 22 6 13 13 18 13 25 2 8 -10 9 -10 5
2 -2 8 -13 14 -23 13 -10 -1 -13 0 -6 3 6 3 10 10 7 14 -3 5 -1 12 5 15 6 4 9
1 8 -6 -2 -6 3 -14 11 -17 8 -2 11 0 8 5 -8 13 26 12 36 -1 5 -8 10 -7 16 3 6
10 13 11 27 3 14 -8 24 -7 39 6 19 16 19 16 6 -1 -8 -10 -9 -17 -3 -17 6 0 14
5 17 10 4 7 13 7 24 0 12 -6 22 -5 31 3 12 10 12 9 1 -5 -7 -9 -19 -14 -27
-11 -8 3 -14 -1 -14 -8 0 -7 3 -9 7 -6 3 4 13 1 21 -6 13 -10 14 -9 8 2 -6 9
-5 12 5 9 8 -3 13 -10 12 -15 -1 -5 4 -10 12 -10 8 0 12 4 9 8 -10 17 18 20
32 3 13 -17 13 -16 3 8 -7 15 -15 26 -18 23 -4 -2 -13 1 -21 7 -12 8 -12 9 3
4 10 -3 17 0 17 7 0 7 5 4 11 -5 5 -9 16 -15 24 -12 8 4 12 10 9 16 -8 13 59
-22 68 -36 5 -6 8 -7 8 -1 0 6 5 3 10 -5 6 -9 10 -10 10 -3 0 7 -9 17 -20 23
-11 6 -20 16 -19 23 0 9 2 9 6 -1 2 -6 9 -10 14 -6 5 3 9 0 9 -6 0 -8 7 -9 18
-5 27 12 116 13 125 1 5 -8 10 -7 16 3 6 10 13 11 27 3 14 -8 24 -7 39 6 19
16 19 16 6 0 -8 -11 -9 -18 -3 -18 6 0 14 5 17 10 4 7 13 7 24 0 12 -6 22 -5
31 3 12 10 12 9 1 -5 -7 -9 -19 -14 -27 -11 -8 3 -14 -1 -14 -8 0 -7 3 -9 7
-6 3 4 16 -1 27 -10 20 -17 20 -17 7 0 -17 22 -3 22 21 0 13 -12 18 -13 16 -4
-2 7 3 16 10 18 6 3 12 -3 12 -13 0 -9 3 -15 6 -11 8 8 -6 48 -15 43 -4 -3
-13 0 -21 6 -12 8 -12 9 2 4 11 -3 18 0 18 7 0 7 5 4 11 -5 5 -9 16 -15 24
-12 8 4 12 10 9 16 -8 13 59 -22 68 -36 4 -6 8 -7 8 -2 0 6 7 1 15 -10 13 -16
14 -16 9 -1 -4 10 -15 22 -25 28 -11 5 -19 15 -18 22 0 9 2 9 6 -1 2 -6 9 -10
14 -6 5 3 9 0 9 -6 0 -8 7 -9 18 -5 27 12 116 13 125 1 5 -8 10 -7 16 3 6 10
13 11 27 3 14 -8 24 -7 39 6 19 16 19 16 6 0 -8 -11 -9 -18 -3 -18 6 0 14 5
17 10 4 7 13 7 24 0 12 -6 22 -5 31 3 12 10 12 9 1 -5 -7 -9 -19 -14 -27 -11
-8 3 -14 -1 -14 -8 0 -7 3 -9 7 -6 3 4 16 -1 27 -10 20 -17 20 -17 7 0 -17 22
-3 22 21 0 13 -12 18 -13 16 -4 -2 7 3 16 10 18 6 3 12 -3 12 -13 0 -9 3 -15
6 -11 8 8 -6 48 -15 43 -4 -3 -13 0 -21 6 -12 8 -12 9 3 4 10 -3 17 0 17 7 0
7 5 4 11 -5 5 -9 16 -15 24 -12 8 4 12 10 9 16 -3 5 8 3 24 -6 39 -20 43 -20
36 1 -5 14 -4 15 4 4 5 -7 14 -11 20 -7 6 3 13 2 17 -4 3 -5 12 -10 18 -10 7
1 1 10 -12 20 -13 11 -19 20 -13 20 5 0 15 -7 22 -15 7 -8 15 -13 19 -11 4 3
13 1 21 -4 9 -5 20 -4 29 3 12 9 13 9 7 -1 -4 -7 -2 -12 5 -12 9 0 9 -3 0 -14
-9 -11 -9 -16 0 -22 7 -4 9 -3 5 4 -3 6 -2 13 3 17 5 3 15 -3 21 -12 10 -16
11 -16 5 2 -11 34 -11 37 5 42 13 4 13 3 0 -6 -12 -9 -10 -11 12 -11 15 0 29
4 32 9 6 9 61 9 70 0 4 -3 -10 -5 -29 -4 -26 2 -35 -1 -35 -13 0 -12 3 -13 12
-4 19 19 32 14 17 -5 -13 -17 -12 -17 6 -2 23 18 101 27 91 10 -4 -6 2 -8 15
-6 16 3 20 0 15 -13 -6 -16 -5 -16 7 0 8 10 18 14 22 10 5 -4 5 -1 1 6 -4 6
-3 12 2 12 5 0 14 -10 21 -23 l11 -22 -6 23 c-5 22 -4 23 18 12 22 -11 22 -10
4 4 -13 11 -15 16 -6 16 7 0 10 3 7 6 -4 4 -13 1 -22 -6 -12 -10 -15 -10 -15
0 0 10 -3 10 -15 0 -8 -7 -15 -9 -15 -5 0 4 -6 2 -14 -4 -11 -9 -15 -7 -18 12
-3 15 0 24 8 24 7 0 10 -6 8 -12 -3 -6 2 -12 11 -12 9 0 14 6 11 14 -4 11 -1
11 15 2 16 -8 24 -8 32 0 8 8 16 3 29 -21 9 -18 17 -28 18 -21 0 6 13 10 29 9
22 -1 27 2 23 13 -4 10 -1 12 8 6 9 -5 11 -4 6 4 -6 9 -11 9 -22 0 -8 -6 -14
-8 -14 -3 0 5 -5 2 -10 -6 -9 -13 -10 -13 -10 0 0 13 -1 13 -10 0 -6 -9 -10
-10 -10 -3 0 6 5 15 10 18 6 3 10 11 10 17 0 7 -4 7 -13 -1 -10 -8 -14 -7 -14
2 0 7 9 14 19 14 10 1 18 -5 18 -13 0 -8 5 -12 10 -9 6 4 8 16 5 28 -2 12 -2
16 1 9 8 -18 24 -4 18 16 -4 13 -3 12 7 -2 9 -15 9 -21 1 -24 -7 -2 -12 -8
-12 -14 0 -5 9 -7 19 -3 13 4 23 0 30 -12 6 -10 11 -13 11 -6 0 7 7 10 18 7
15 -5 15 -4 -1 6 -17 11 -17 13 -2 30 9 10 14 23 11 29 -4 5 3 15 15 21 11 7
18 14 15 17 -3 4 -2 11 4 17 6 8 -1 12 -26 12 -18 0 -34 -4 -34 -9 0 -5 7 -6
16 -3 10 4 13 2 8 -6 -4 -7 -3 -8 4 -4 8 5 10 2 6 -8 -5 -14 -8 -14 -21 -1 -8
8 -18 15 -22 15 -4 0 -8 7 -8 15 0 8 4 12 8 10 4 -3 9 1 12 9 6 14 -25 51 -34
41 -3 -2 -5 5 -5 15 0 18 3 17 22 -7 14 -18 23 -23 28 -15 4 7 2 12 -3 12 -6
0 -11 7 -11 15 0 8 4 15 8 15 4 0 8 9 9 20 1 11 -2 20 -6 20 -4 0 -13 12 -20
28 l-12 27 21 -25 c15 -19 20 -21 20 -9 0 9 -7 22 -15 29 -15 13 -11 35 6 25
5 -4 12 0 15 9 3 8 11 13 18 10 6 -2 20 2 30 9 16 12 16 14 2 14 -9 0 -16 -4
-16 -9 0 -4 -5 -8 -10 -8 -12 0 -9 22 4 32 6 4 4 13 -4 22 -7 9 -10 20 -6 23
4 4 12 1 17 -7 9 -12 10 -12 5 3 -3 10 -6 21 -6 24 0 3 -6 0 -14 -6 -9 -7 -17
-8 -20 -3 -3 6 1 13 10 16 8 3 12 10 9 16 -3 5 -1 10 4 10 6 0 11 5 11 11 0 5
-4 7 -10 4 -6 -3 -10 -1 -10 4 0 6 6 11 13 11 8 0 8 3 -2 9 -11 7 -10 10 5 14
10 3 3 4 -18 2 -43 -5 -57 15 -33 51 16 25 8 33 -13 12 -9 -9 -15 -9 -24 1
-11 10 -9 11 6 5 12 -5 17 -4 13 3 -4 6 3 10 16 9 12 -1 21 -8 19 -15 -1 -8 2
-10 10 -5 10 6 10 5 1 -7 -14 -17 -5 -36 19 -36 10 0 14 6 11 15 -5 11 -7 11
-14 0 -7 -10 -9 -9 -9 5 0 9 6 17 13 17 8 0 7 4 -3 10 -13 8 -12 10 3 10 9 0
17 5 17 10 0 7 -6 7 -20 0 -25 -13 -28 5 -3 19 14 8 15 11 4 25 -8 9 -10 20
-6 24 4 4 10 1 12 -5 3 -7 10 -13 16 -13 6 0 0 11 -13 25 -13 14 -20 25 -16
25 3 0 0 14 -9 30 -16 31 -32 42 -21 15 3 -8 1 -15 -4 -15 -5 0 -9 11 -8 23 1
13 8 24 15 24 6 0 10 -3 8 -7 -2 -3 5 -7 16 -7 10 -1 19 2 19 8 0 5 -3 8 -7 7
-5 0 -16 2 -25 5 -10 4 -25 9 -33 12 -12 3 -13 9 -3 29 6 14 15 23 19 20 5 -3
9 3 9 12 0 10 3 14 7 10 10 -10 13 -37 3 -31 -5 3 -7 -3 -5 -12 2 -10 4 -21 4
-25 1 -5 6 -8 12 -8 5 0 7 5 4 10 -3 6 0 10 7 10 9 0 9 3 -2 10 -13 8 -12 10
3 10 9 0 17 4 17 10 0 5 -8 7 -17 3 -15 -5 -16 -3 -6 8 21 21 15 30 -15 24
-24 -4 -31 0 -41 23 l-12 27 21 -25 c15 -19 20 -21 20 -9 0 9 -7 22 -15 29
-15 13 -11 35 6 25 5 -4 12 0 15 9 3 8 11 13 18 10 6 -2 20 2 30 9 16 12 16
14 2 14 -9 0 -16 -4 -16 -9 0 -4 -5 -8 -10 -8 -12 0 -9 22 4 32 6 4 4 13 -4
22 -7 9 -10 20 -6 23 4 4 12 1 17 -7 9 -12 10 -12 5 3 -3 10 -6 21 -6 24 0 3
-6 0 -14 -6 -9 -7 -17 -8 -20 -3 -3 6 1 13 10 16 8 3 12 10 9 16 -3 5 -1 10 4
10 6 0 11 5 11 11 0 5 -5 7 -10 4 -6 -3 -10 -1 -10 4 0 6 6 11 13 11 8 0 8 3
-2 9 -11 7 -10 10 5 14 10 3 3 4 -18 2 -43 -5 -57 15 -33 51 16 25 8 33 -13
12 -9 -9 -15 -9 -24 1 -11 10 -9 11 6 5 12 -5 17 -4 13 3 -4 6 3 10 16 9 12
-1 21 -8 19 -15 -1 -8 2 -10 10 -5 10 6 10 5 1 -7 -14 -17 -5 -36 19 -36 10 0
14 6 11 15 -5 11 -7 11 -14 0 -7 -10 -9 -9 -9 5 0 9 6 17 13 17 8 0 7 4 -3 10
-13 8 -12 10 3 10 9 0 17 5 17 10 0 7 -6 7 -20 0 -25 -13 -28 5 -3 19 14 8 15
11 4 25 -8 9 -10 20 -6 24 4 4 10 1 12 -5 3 -7 10 -13 16 -13 6 0 0 11 -13 25
-13 14 -20 25 -16 25 3 0 0 14 -9 30 -16 31 -32 42 -21 15 3 -8 1 -15 -4 -15
-5 0 -9 11 -8 23 1 13 8 24 15 24 6 0 10 -3 8 -7 -2 -3 5 -7 16 -7 10 -1 19 2
19 8 0 5 -3 8 -7 7 -5 0 -15 1 -23 4 -8 4 -23 9 -32 12 -15 4 -16 9 -6 30 6
14 15 23 19 20 5 -3 9 3 9 12 0 10 3 14 7 10 10 -10 13 -37 3 -31 -5 3 -7 -3
-5 -12 2 -10 4 -21 4 -25 1 -5 6 -8 12 -8 5 0 7 5 4 10 -3 6 0 10 7 10 9 0 9
3 -2 10 -13 8 -12 10 3 10 9 0 17 4 17 10 0 5 -8 7 -17 3 -15 -5 -16 -3 -5 8
20 21 14 30 -16 24 -24 -4 -31 0 -41 23 l-12 27 21 -25 c15 -19 20 -21 20 -9
0 9 -7 22 -15 29 -15 13 -11 35 6 25 5 -4 12 0 15 9 3 8 11 13 18 10 6 -2 20
2 30 9 16 12 16 14 2 14 -9 0 -16 -4 -16 -9 0 -4 -5 -8 -10 -8 -12 0 -9 22 4
32 6 4 4 13 -4 22 -7 9 -10 20 -6 23 4 4 12 1 17 -7 9 -12 10 -12 5 3 -3 10
-6 21 -6 24 0 3 -6 0 -14 -6 -9 -7 -17 -8 -20 -3 -3 6 1 13 10 16 8 3 12 10 9
16 -3 5 -1 10 4 10 6 0 11 5 11 11 0 5 -4 7 -10 4 -5 -3 -10 -1 -10 4 0 6 6
11 13 11 8 0 8 3 -2 9 -11 7 -10 10 5 14 10 3 3 4 -18 2 -27 -4 -38 0 -42 12
-6 14 -9 14 -29 -3 -17 -15 -19 -15 -8 -2 7 9 9 23 5 29 -8 14 11 4 39 -19 15
-14 17 -13 17 1 0 10 -4 17 -8 17 -5 0 -14 12 -21 28 l-12 27 21 -25 c12 -16
20 -20 20 -11 0 8 -7 22 -15 31 -13 14 -12 16 9 16 20 0 23 -4 20 -23 -3 -17
0 -23 13 -23 15 0 16 2 3 10 -12 8 -12 10 5 11 18 0 19 1 2 8 -10 4 -18 11
-17 16 3 21 33 43 48 38 10 -4 14 -3 10 1 -11 13 -42 14 -57 2 -12 -9 -13 -8
-8 7 4 10 7 21 7 23 0 3 4 3 8 0 4 -2 9 4 9 15 1 10 -3 19 -8 19 -6 0 -8 4 -4
9 8 14 -30 32 -52 24 -10 -3 -15 -2 -10 2 4 5 0 20 -10 34 -13 21 -14 24 -1
13 8 -7 24 -9 34 -6 17 6 17 5 -1 -9 -18 -15 -18 -17 -2 -18 31 -3 35 -4 43
-11 4 -5 12 -8 18 -8 6 0 3 5 -7 11 -10 6 -14 15 -10 22 4 8 1 8 -9 -1 -14
-11 -16 -9 -14 23 2 21 11 41 22 50 16 13 17 14 1 9 -13 -5 -16 -2 -11 10 3 9
1 16 -5 16 -6 0 -10 6 -9 13 2 6 -3 11 -11 9 -9 -2 -11 3 -7 13 3 9 2 13 -4
10 -6 -3 -10 -2 -10 3 0 6 7 12 15 16 8 3 15 11 15 18 0 10 -2 10 -8 1 -6 -9
-16 -7 -41 8 -18 11 -31 23 -27 26 3 3 17 -2 31 -11 14 -9 25 -12 25 -7 0 5
-9 13 -21 16 -15 5 -18 10 -10 18 6 6 11 16 11 22 0 5 -5 2 -11 -8 -8 -14 -14
-16 -25 -6 -8 6 -14 8 -14 3 0 -5 -5 -2 -11 6 -9 13 -10 12 -5 -2 6 -21 -10
-34 -17 -14 -3 7 1 24 10 37 10 16 6 14 -12 -6 -17 -18 -25 -23 -21 -12 3 11
2 16 -4 12 -6 -3 -10 -1 -10 4 0 6 -5 11 -12 11 -9 0 -9 -3 0 -12 8 -8 9 -15
0 -25 -8 -11 -7 -12 6 -7 10 4 16 1 16 -7 0 -11 3 -11 11 1 9 13 10 13 6 -2
-7 -19 13 -19 37 1 9 7 16 9 16 3 0 -14 -26 -33 -40 -30 -7 2 -14 -2 -16 -7
-2 -6 5 -11 16 -11 11 0 20 4 20 9 0 5 7 4 15 -3 11 -9 12 -16 5 -25 -5 -6 -7
-15 -3 -18 9 -9 23 -9 22 1 -3 17 2 32 9 32 8 0 10 -6 14 -49 1 -11 7 -17 12
-14 5 4 6 1 1 -7 -6 -9 -4 -11 5 -5 9 6 11 4 5 -5 -6 -9 -4 -11 5 -5 9 6 11 4
5 -5 -6 -9 -4 -11 6 -5 11 7 12 6 2 -7 -7 -8 -9 -19 -5 -23 4 -5 0 -5 -8 0
-12 6 -13 5 -2 -6 6 -7 12 -17 12 -23 0 -5 -6 -1 -14 9 -12 17 -16 18 -32 5
-16 -13 -17 -13 -9 0 5 8 10 21 11 28 3 15 -41 46 -55 38 -5 -3 -11 1 -15 9
-3 8 0 17 6 21 7 4 8 3 4 -4 -4 -7 -3 -12 3 -12 5 0 18 -3 28 -7 15 -5 15 -2
-4 18 -18 20 -20 28 -11 37 9 9 9 12 1 12 -7 0 -19 -10 -27 -22 -9 -12 -16
-18 -16 -12 0 5 6 16 13 23 10 11 9 13 -5 8 -9 -3 -22 1 -28 9 -10 11 -10 14
-1 14 7 0 9 5 6 10 -5 8 -11 7 -21 -1 -10 -8 -12 -15 -4 -23 13 -13 13 -26 -1
-26 -5 0 -8 4 -4 9 3 5 1 13 -5 16 -8 5 -8 11 0 20 7 9 8 15 1 19 -6 4 -8 13
-4 21 3 8 0 15 -7 15 -6 0 -9 4 -6 9 4 5 -3 7 -14 4 -16 -4 -19 -2 -14 13 5
14 2 13 -11 -4 -16 -22 -18 -22 -31 -5 -13 17 -14 17 -7 -1 4 -13 3 -17 -5
-12 -6 3 -14 1 -18 -5 -5 -8 -3 -9 6 -4 8 5 11 4 6 -3 -8 -13 17 -10 35 5 8 6
22 7 34 2 11 -4 16 -8 12 -8 -4 -1 -3 -9 2 -20 8 -13 6 -23 -5 -37 -9 -11 -13
-14 -10 -8 6 12 -21 29 -37 25 -5 -1 -6 3 -2 9 4 7 13 7 26 -1 12 -6 23 -8 26
-5 3 3 -2 8 -11 12 -9 3 -13 10 -10 15 11 19 -18 8 -41 -16 -25 -24 -28 -46
-11 -75 7 -12 6 -13 -4 -3 -18 16 -21 42 -9 64 6 11 5 20 -1 24 -5 3 -10 -1
-10 -9 0 -8 -5 -18 -12 -22 -8 -5 -9 -2 -4 12 14 35 17 64 6 64 -6 0 -8 -4 -5
-10 10 -17 -17 -11 -38 8 -11 9 -17 12 -14 5 4 -6 3 -14 -3 -18 -5 -3 -10 1
-10 9 0 9 -4 16 -10 16 -5 0 -7 -7 -3 -16 5 -14 3 -15 -16 -4 -26 14 -41 5
-21 -13 10 -10 11 -9 5 1 -6 11 -3 12 11 5 22 -11 34 -11 51 0 6 4 14 3 17 -2
7 -11 -22 -24 -35 -16 -5 4 -6 -1 -3 -9 3 -9 1 -16 -5 -16 -6 0 -10 5 -9 11 2
6 -3 14 -11 17 -9 3 -11 0 -6 -8 5 -8 4 -11 -3 -6 -6 3 -13 -3 -17 -14 -3 -11
-11 -20 -16 -20 -14 0 -11 9 8 28 16 16 15 17 0 20 -10 2 -15 7 -12 12 3 5 0
12 -6 16 -8 4 -9 3 -5 -4 4 -7 2 -12 -3 -12 -6 0 -11 8 -12 18 0 13 -2 12 -9
-5 -5 -13 -14 -23 -20 -23 -6 0 -8 -5 -5 -10 4 -7 13 -6 27 1 15 8 23 8 32 -1
8 -8 6 -9 -8 -4 -13 5 -17 4 -12 -4 8 -14 -36 -12 -46 2 -4 6 -2 16 4 23 6 7
7 13 2 13 -5 0 -2 5 6 11 12 9 12 10 -3 5 -10 -3 -23 -6 -28 -6 -5 0 -9 -4 -9
-10 0 -5 8 -7 18 -4 15 5 15 4 -1 -9 -18 -15 -18 -16 2 -36 30 -30 12 -26 -24
5 -16 14 -24 22 -16 18 10 -5 12 -3 6 6 -6 9 -4 11 4 5 10 -6 11 -3 2 12 -6
11 -7 23 -4 27 3 3 1 6 -6 6 -8 0 -10 -7 -6 -21 6 -18 5 -19 -14 -7 -12 7 -21
17 -21 22 0 4 -9 -2 -21 -15 -16 -18 -19 -20 -15 -6 3 11 2 16 -4 12 -6 -3
-10 -12 -10 -20 0 -10 11 -13 38 -10 31 3 38 0 39 -16 1 -12 -7 -21 -23 -25
-13 -3 -21 -11 -17 -17 3 -6 1 -7 -6 -3 -14 9 -5 26 14 26 8 0 16 4 19 9 3 5
-12 9 -34 9 -23 1 -38 -3 -35 -9 4 -5 11 -6 17 -3 7 4 8 2 4 -4 -13 -21 -36
-1 -31 27 3 19 -1 30 -15 39 -16 10 -18 9 -13 -5 5 -12 3 -14 -8 -9 -8 4 -3
-2 10 -13 13 -12 18 -21 12 -21 -7 0 -9 -4 -6 -10 3 -5 1 -10 -5 -10 -7 0 -10
6 -7 14 4 10 0 14 -14 13 -12 -1 -19 -9 -20 -22 -1 -17 -2 -17 -6 -2 -2 9 -10
15 -16 11 -7 -3 -3 1 7 10 10 8 22 14 25 12 3 -2 6 6 6 19 0 13 -3 21 -7 18
-5 -2 -8 -11 -8 -19 0 -8 -4 -14 -9 -14 -6 0 -8 8 -6 18 2 11 -3 19 -10 19 -8
0 -11 -5 -7 -11 18 -30 -1 -52 -33 -40 -11 5 -13 2 -9 -9 4 -11 0 -15 -14 -14
-12 0 -18 6 -15 14 5 12 11 15 42 17 21 2 25 22 6 30 -9 3 -14 2 -11 -3 3 -5
-1 -12 -10 -15 -12 -4 -15 -2 -10 9 3 8 1 15 -4 15 -5 0 -10 -10 -12 -22 -2
-17 -9 -22 -22 -20 -18 3 -18 2 -6 -13 12 -14 12 -18 0 -25 -8 -5 -18 -6 -22
-4 -12 7 -10 44 2 44 6 0 10 4 10 10 0 5 -8 6 -17 3 -16 -6 -16 -5 -4 10 12
15 12 17 -2 11 -11 -4 -15 -16 -13 -41 2 -29 1 -33 -9 -19 -7 8 -14 15 -16 13
-2 -1 2 4 10 11 10 8 11 12 3 12 -9 0 -10 5 -3 18 7 14 6 19 -4 19 -7 0 -11
-7 -7 -15 4 -11 2 -13 -9 -7 -12 8 -12 6 0 -8 13 -17 6 -23 -21 -18 -5 0 -8
-4 -8 -9 0 -6 5 -10 12 -10 6 0 8 -3 5 -6 -4 -4 -13 -1 -21 5 -10 9 -16 9 -21
1 -5 -8 -11 -8 -21 1 -16 13 -19 -2 -4 -17 8 -8 6 -15 -5 -24 -13 -11 -19 -11
-32 3 -15 15 -15 17 0 23 25 9 20 19 -10 22 -22 1 -24 0 -13 -8 21 -14 4 -12
-19 2 -25 15 -58 3 -42 -16 9 -10 9 -16 1 -21 -6 -4 -9 -1 -8 7 2 7 -3 12 -9
11 -12 -3 -17 9 -14 29 0 4 -8 6 -19 5 -15 -1 -19 -7 -15 -24 2 -13 0 -21 -6
-18 -5 4 -9 1 -9 -6 0 -7 -3 -9 -6 -6 -4 4 -1 13 5 21 8 10 9 16 1 21 -5 3
-10 1 -10 -4 0 -6 -6 -11 -12 -11 -7 1 -2 9 11 20 12 11 26 18 30 16 3 -2 6 6
6 19 0 13 -3 21 -7 18 -5 -2 -8 -11 -8 -19 0 -8 -4 -14 -9 -14 -6 0 -8 8 -6
18 2 11 -3 19 -10 19 -8 0 -11 -5 -7 -11 19 -30 0 -51 -35 -40 -15 5 -15 3 1
-10 11 -9 15 -16 9 -16 -7 0 -15 5 -18 10 -7 12 -25 4 -25 -11 0 -6 6 -7 13
-3 6 4 8 3 4 -1 -4 -5 -14 -10 -22 -11 -11 -2 -12 2 -5 16 13 25 13 26 -11 27
-17 2 -18 -1 -9 -13 9 -10 9 -14 1 -14 -6 0 -11 5 -11 11 0 5 -4 7 -10 4 -5
-3 -10 -1 -10 4 0 6 5 11 10 11 6 0 10 4 10 10 0 5 -8 6 -17 3 -16 -6 -16 -5
-4 10 12 15 12 17 -2 11 -11 -4 -15 -15 -13 -35 2 -16 -3 -37 -11 -46 -13 -16
-13 -16 -4 4 7 14 8 24 1 28 -5 3 -10 -2 -11 -12 0 -13 -2 -14 -6 -4 -3 8 2
20 13 28 10 7 12 13 6 13 -9 0 -10 5 -3 18 7 14 6 19 -4 19 -7 0 -11 -7 -7
-15 4 -11 2 -13 -9 -7 -12 8 -12 6 0 -8 13 -17 6 -23 -21 -18 -12 2 -10 -17 2
-24 6 -3 10 -12 10 -18 0 -7 -8 -3 -16 8 -8 11 -19 19 -24 18 -5 -2 -7 4 -4
11 3 9 15 13 27 11 l22 -4 -22 18 c-12 10 -19 22 -15 26 4 4 -3 1 -15 -6 -13
-8 -23 -18 -23 -23 0 -4 7 -3 15 4 11 9 15 9 15 1 0 -6 -7 -14 -15 -17 -11 -5
-12 -10 -4 -26 9 -18 8 -18 -10 -9 -11 6 -23 16 -27 23 -5 7 -3 8 6 3 9 -6 11
-4 5 5 -6 9 -4 11 4 5 10 -6 11 -3 2 12 -6 11 -7 23 -4 27 3 3 1 6 -6 6 -8 0
-10 -7 -6 -21 6 -18 5 -19 -14 -7 -12 7 -21 17 -21 22 0 4 -9 -2 -21 -15 -16
-18 -19 -20 -15 -6 3 11 2 16 -4 12 -6 -3 -10 -12 -10 -20 0 -10 11 -13 38
-10 31 3 38 0 39 -16 1 -12 -7 -21 -23 -25 -13 -3 -21 -11 -17 -17 3 -6 1 -7
-6 -3 -14 9 -5 26 14 26 8 0 16 4 19 9 3 5 -12 9 -34 9 -23 1 -38 -3 -35 -9 4
-5 11 -6 17 -3 7 4 8 2 4 -4 -13 -21 -36 -1 -31 27 3 19 -1 30 -15 39 -16 10
-18 9 -13 -5 5 -12 3 -14 -8 -9 -8 4 -3 -2 10 -13 13 -12 18 -21 12 -21 -7 0
-9 -4 -6 -10 3 -5 1 -10 -5 -10 -7 0 -10 6 -7 14 4 10 0 14 -14 13 -12 -1 -19
-9 -20 -22 -1 -17 -2 -17 -6 -2 -2 9 -10 15 -16 11 -7 -3 -3 1 7 10 10 8 22
14 25 12 3 -2 6 6 6 19 0 13 -3 21 -7 18 -5 -2 -8 -11 -8 -19 0 -8 -4 -14 -9
-14 -6 0 -8 8 -6 18 2 11 -3 19 -10 19 -8 0 -11 -5 -7 -11 18 -30 -1 -52 -33
-40 -11 5 -13 2 -8 -12 5 -13 3 -16 -10 -11 -9 3 -19 2 -23 -4 -4 -7 -12 -5
-23 5 -14 13 -20 13 -30 3 -11 -9 -14 -9 -18 1 -3 6 -9 12 -14 12 -6 0 -7 -4
-4 -10 3 -5 1 -10 -5 -10 -17 0 -6 25 11 25 8 0 20 4 27 9 9 5 19 1 29 -14 15
-22 17 -22 29 -5 8 10 24 19 36 20 27 2 35 20 13 29 -9 3 -14 2 -11 -3 3 -5
-1 -12 -10 -15 -12 -4 -15 -2 -10 9 3 8 1 15 -4 15 -6 0 -10 -9 -10 -19 0 -24
-16 -36 -26 -20 -4 7 -3 9 4 5 6 -3 9 1 8 11 -2 9 -8 18 -15 19 -6 1 -7 0 -1
-3 15 -7 2 -23 -15 -17 -8 4 -12 10 -9 15 9 15 -3 10 -21 -8 -13 -13 -19 -13
-25 -3 -6 10 -9 10 -14 -1 -3 -8 -4 -4 -2 9 2 12 1 20 -4 17 -12 -8 -19 -44
-9 -51 14 -9 10 -27 -5 -21 -7 3 -23 -1 -34 -9 -17 -12 -21 -12 -26 2 -8 20 2
36 16 28 7 -4 8 -2 4 5 -5 7 -16 9 -28 5 -16 -5 -18 -3 -12 7 13 21 14 39 2
39 -6 0 -8 -7 -5 -15 4 -8 3 -16 -1 -19 -9 -5 -32 20 -25 28 4 3 4 6 1 6 -2 0
-8 -3 -11 -7z m488 -23 c3 -5 1 -10 -4 -10 -6 0 -11 5 -11 10 0 6 2 10 4 10 3
0 8 -4 11 -10z m960 0 c3 -5 1 -10 -4 -10 -6 0 -11 5 -11 10 0 6 2 10 4 10 3
0 8 -4 11 -10z m-1406 -44 c0 -7 -2 -6 -6 2 -7 18 -23 4 -17 -16 5 -14 4 -15
-5 -2 -5 8 -13 11 -17 7 -4 -3 -2 -13 4 -20 9 -10 8 -14 -2 -14 -17 0 -14 40
4 62 10 12 16 13 26 4 8 -6 14 -17 13 -23z m111 28 c0 -8 -19 -13 -24 -6 -3 5
1 9 9 9 8 0 15 -2 15 -3z m1580 -11 c0 -5 -4 -14 -9 -21 -7 -11 -9 -11 -14 1
-3 8 -3 18 0 21 9 8 23 7 23 -1z m-1400 -33 c0 -7 -13 -7 -38 -1 -2 1 -1 5 3
11 6 10 35 2 35 -10z m605 2 c-3 -3 -11 0 -18 7 -9 10 -8 11 6 5 10 -3 15 -9
12 -12z m355 -2 c0 -7 -13 -7 -38 -1 -2 1 -1 5 3 11 6 10 35 2 35 -10z m391
-3 c-10 -9 -11 -8 -5 6 3 10 9 15 12 12 3 -3 0 -11 -7 -18z m-1467 5 c2 -4 -5
-9 -17 -9 -17 -2 -19 0 -7 7 18 12 18 12 24 2z m185 -8 c11 7 8 -20 -4 -31 -4
-5 -5 -2 0 6 6 11 4 13 -11 7 -10 -4 -15 -4 -11 0 4 4 1 14 -6 23 -10 14 -10
14 5 3 9 -8 21 -11 27 -8z m301 1 c0 -2 -9 -3 -19 -2 -11 0 -18 5 -15 9 4 6
34 0 34 -7z m369 -13 c-1 -15 -2 -15 -6 1 -2 9 -9 14 -15 11 -7 -4 -8 -2 -4 5
10 15 26 4 25 -17z m47 16 c4 -7 3 -8 -4 -4 -7 4 -12 2 -12 -5 0 -7 -3 -10 -6
-6 -6 5 3 27 11 27 2 0 7 -5 11 -12z m243 -4 c11 7 8 -20 -4 -31 -4 -5 -5 -2
0 6 6 11 4 13 -11 7 -10 -4 -15 -4 -11 0 4 4 1 14 -6 23 -10 14 -10 14 5 3 9
-8 21 -11 27 -8z m301 1 c0 -2 -9 -3 -19 -2 -11 0 -18 5 -15 9 4 6 34 0 34 -7z
m-1613 -8 c0 -8 -6 -14 -13 -14 -7 0 -10 6 -7 14 3 7 8 13 12 13 4 0 8 -6 8
-13z m60 -1 c0 -8 -6 -12 -15 -9 -11 5 -11 7 0 14 7 5 13 9 14 9 0 0 1 -6 1
-14z m63 -7 c0 -4 -5 -11 -12 -15 -7 -5 -8 -3 -3 6 6 9 4 12 -7 8 -8 -4 -15
-1 -15 7 0 7 8 10 19 7 10 -2 18 -8 18 -13z m106 -1 c-9 -5 -13 -15 -10 -21 4
-7 3 -9 -1 -4 -5 4 -9 16 -10 26 -1 13 4 17 18 13 17 -4 18 -6 3 -14z m254 18
c0 -3 -4 -8 -10 -11 -5 -3 -10 -1 -10 4 0 6 5 11 10 11 6 0 10 -2 10 -4z m257
-10 c0 -8 -8 -11 -21 -8 -19 5 -19 6 0 13 10 4 19 8 20 8 0 1 1 -5 1 -13z
m449 -8 c-9 -5 -13 -15 -10 -21 4 -7 3 -9 -1 -4 -5 4 -9 16 -10 26 -1 13 4 17
18 13 17 -4 18 -6 3 -14z m254 18 c0 -3 -4 -8 -10 -11 -5 -3 -10 -1 -10 4 0 6
5 11 10 11 6 0 10 -2 10 -4z m491 -13 c13 -16 12 -17 -3 -4 -10 7 -18 15 -18
17 0 8 8 3 21 -13z m-795 -8 c-1 -8 -5 -17 -8 -21 -5 -4 -4 16 1 34 3 9 9 -1
7 -13z m624 11 c0 -2 -7 -6 -15 -10 -8 -3 -15 -1 -15 4 0 6 7 10 15 10 8 0 15
-2 15 -4z m-1873 -12 c-3 -3 -12 -4 -19 -1 -8 3 -5 6 6 6 11 1 17 -2 13 -5z
m1028 -3 c3 -5 2 -12 -3 -15 -5 -3 -9 1 -9 9 0 17 3 19 12 6z m680 0 c3 -5 2
-12 -3 -15 -5 -3 -9 1 -9 9 0 17 3 19 12 6z m-1555 -5 c0 -3 -4 -8 -10 -11 -5
-3 -10 -1 -10 4 0 6 5 11 10 11 6 0 10 -2 10 -4z m260 0 c0 -3 -4 -8 -10 -11
-5 -3 -10 -1 -10 4 0 6 5 11 10 11 6 0 10 -2 10 -4z m760 -6 c0 -5 -2 -10 -4
-10 -3 0 -8 5 -11 10 -3 6 -1 10 4 10 6 0 11 -4 11 -10z m200 6 c0 -3 -4 -8
-10 -11 -5 -3 -10 -1 -10 4 0 6 5 11 10 11 6 0 10 -2 10 -4z m420 -6 c0 -5 -5
-10 -11 -10 -5 0 -7 5 -4 10 3 6 8 10 11 10 2 0 4 -4 4 -10z m-1846 -18 c3 -5
-1 -9 -9 -9 -8 0 -15 4 -15 9 0 4 4 8 9 8 6 0 12 -4 15 -8z m886 -2 c0 -5 -5
-10 -11 -10 -5 0 -7 5 -4 10 3 6 8 10 11 10 2 0 4 -4 4 -10z m1137 -5 c0 -8
-4 -12 -9 -9 -5 3 -6 10 -3 15 9 13 12 11 12 -6z m-1923 -17 c-3 -4 -11 -5
-19 -1 -21 7 -19 12 4 10 11 0 18 -5 15 -9z m-122 -30 c-8 -8 -9 -4 -5 13 4
13 8 18 11 10 2 -7 -1 -18 -6 -23z m46 7 c-3 -3 -9 2 -12 12 -6 14 -5 15 5 6
7 -7 10 -15 7 -18z m-78 -35 c0 -5 -4 -10 -10 -10 -5 0 -10 5 -10 10 0 6 5 10
10 10 6 0 10 -4 10 -10z m2138 -8 c2 -7 9 -9 15 -5 7 3 8 2 4 -2 -14 -16 -36
-14 -30 3 4 10 2 13 -5 8 -6 -3 -13 -2 -16 3 -4 5 2 8 11 7 9 -2 19 -8 21 -14z
m62 -32 c0 -5 -5 -10 -11 -10 -5 0 -7 5 -4 10 3 6 8 10 11 10 2 0 4 -4 4 -10z
m-56 -22 c-2 -3 -13 -6 -24 -5 -24 2 -18 13 9 13 11 0 18 -4 15 -8z m-2150
-53 c-4 -8 -11 -15 -16 -15 -6 0 -5 6 2 15 7 8 14 15 16 15 2 0 1 -7 -2 -15z
m2239 -8 c7 3 9 3 5 -2 -4 -4 -3 -14 2 -21 8 -9 4 -17 -13 -30 -33 -27 -42
-44 -22 -44 10 0 13 5 9 13 -6 9 -5 9 7 0 12 -10 18 -10 29 0 12 10 12 9 0 -6
-16 -22 -67 -20 -61 3 8 33 7 55 -3 63 -7 6 -4 7 6 3 10 -3 20 -1 23 4 4 6 1
10 -5 10 -6 0 -8 5 -4 12 6 9 9 9 12 0 2 -7 9 -9 15 -5z m-2260 -37 c3 -11 1
-18 -4 -14 -5 3 -9 12 -9 20 0 20 7 17 13 -6z m-50 -46 c7 1 9 1 4 -1 -4 -3
-4 -9 -1 -14 3 -6 11 -5 20 2 10 8 14 8 14 0 0 -6 -4 -11 -10 -11 -5 0 -7 -7
-4 -15 4 -8 -1 -17 -10 -21 -18 -7 -22 -35 -5 -31 6 1 14 -5 16 -13 4 -13 3
-13 -6 0 -6 8 -11 13 -12 10 0 -3 -2 -13 -4 -23 -2 -12 2 -17 13 -15 11 2 17
-5 18 -19 1 -12 -2 -20 -6 -18 -4 3 -13 -2 -20 -9 -9 -12 -7 -17 9 -25 22 -12
18 -41 -6 -41 -8 0 -11 -5 -8 -10 4 -6 12 -7 18 -4 7 4 9 3 4 -1 -4 -5 -15 -9
-25 -10 -13 -1 -18 6 -17 24 0 14 4 31 8 38 4 7 -1 18 -13 26 -17 12 -18 16
-7 25 9 8 13 32 11 74 -1 35 -3 64 -4 66 -5 5 -6 28 -1 37 3 6 7 2 9 -7 2 -9
9 -16 15 -14z m2257 11 c0 -7 -30 -13 -34 -7 -3 4 4 9 15 9 10 1 19 0 19 -2z
m-2206 -83 c3 -5 -1 -9 -9 -9 -8 0 -15 4 -15 9 0 4 4 8 9 8 6 0 12 -4 15 -8z
m20 -80 c3 -5 -1 -9 -9 -9 -8 0 -12 4 -9 9 3 4 7 8 9 8 2 0 6 -4 9 -8z m2201
-1 c3 -5 0 -13 -6 -17 -7 -4 -9 -3 -5 4 3 5 0 13 -6 15 -9 4 -10 6 -1 6 6 1
14 -3 18 -8z m40 -31 c1 -20 -2 -27 -9 -21 -6 5 -19 7 -28 6 -10 -2 -18 1 -18
6 0 9 15 13 34 10 5 -1 6 5 3 13 -6 15 2 30 12 21 2 -3 5 -19 6 -35z m-2265
-10 c8 -5 11 -10 5 -10 -5 0 -17 5 -25 10 -8 5 -10 10 -5 10 6 0 17 -5 25 -10z
m2209 -28 c8 -15 6 -18 -14 -18 -13 0 -21 4 -19 8 3 5 10 5 16 2 7 -5 9 -1 5
9 -9 23 0 22 12 -1z m38 1 c-4 -3 -2 -12 4 -19 7 -8 6 -14 -2 -20 -8 -4 -9 -3
-5 4 4 7 2 12 -3 12 -6 0 -11 7 -11 15 0 8 5 15 12 15 6 0 8 -3 5 -7z m-2217
-9 c0 -8 -19 -13 -24 -6 -3 5 1 9 9 9 8 0 15 -2 15 -3z m-6 -54 c-6 -6 -10 -3
-10 10 0 13 4 16 10 10 7 -7 7 -13 0 -20z m2186 26 c0 -2 -6 -9 -14 -15 -11
-9 -16 -9 -22 0 -4 7 -3 9 4 5 6 -3 13 -2 17 4 6 10 15 14 15 6z m9 -40 c-9
-8 -10 -7 -5 7 3 10 7 24 7 30 1 7 3 4 6 -7 3 -10 -1 -23 -8 -30z m50 8 c-6
-8 -8 -14 -4 -14 4 0 2 -7 -5 -15 -7 -8 -16 -15 -21 -15 -5 0 -9 7 -9 15 0 8
5 15 12 15 6 0 8 3 5 7 -10 9 13 34 25 27 5 -3 4 -12 -3 -20z m-2245 -22 c3
-5 -1 -9 -9 -9 -8 0 -12 4 -9 9 3 4 7 8 9 8 2 0 6 -4 9 -8z m-24 -42 c8 -5 11
-10 5 -10 -5 0 -17 5 -25 10 -8 5 -10 10 -5 10 6 0 17 -5 25 -10z m2210 -5 c0
-2 -9 -3 -19 -2 -11 0 -18 5 -15 9 4 6 34 0 34 -7z m-2180 -31 c0 -8 -19 -13
-24 -6 -3 5 1 9 9 9 8 0 15 -2 15 -3z m2190 -42 c0 -4 -9 -13 -20 -19 -14 -9
-21 -10 -26 -1 -4 7 -3 8 5 4 6 -4 14 0 17 8 6 16 24 22 24 8z m-30 -102 c0
-5 -2 -10 -4 -10 -3 0 -8 5 -11 10 -3 6 -1 10 4 10 6 0 11 -4 11 -10z m23 -5
c-3 -9 -8 -14 -10 -11 -3 3 -2 9 2 15 9 16 15 13 8 -4z m-2208 -15 c3 -6 -1
-7 -9 -4 -18 7 -21 14 -7 14 6 0 13 -4 16 -10z m2246 -28 c9 2 14 -8 15 -27 1
-16 2 -33 3 -37 2 -14 1 -18 -5 -17 -4 0 -11 -5 -16 -13 -7 -10 -8 -9 -4 5 3
9 1 17 -4 17 -6 0 -10 5 -10 11 0 5 5 7 10 4 6 -3 10 1 10 9 0 9 -6 15 -12 14
-7 -2 -12 5 -12 15 1 9 -2 17 -7 17 -5 0 -9 5 -9 11 0 8 4 8 14 0 8 -6 20 -10
27 -9z m-47 -18 c3 -8 2 -12 -4 -9 -6 3 -10 10 -10 16 0 14 7 11 14 -7z
m-2261 -51 c-6 -14 -4 -14 19 1 24 16 24 16 23 -14 -1 -16 -10 -38 -20 -50
-25 -27 -7 -26 24 3 l24 22 -19 -27 c-10 -14 -28 -28 -39 -30 -17 -4 -21 1
-20 21 0 14 4 31 8 38 5 7 0 17 -12 25 -15 9 -17 16 -9 25 14 17 29 7 21 -14z
m111 19 c3 -5 -1 -9 -9 -9 -8 0 -12 4 -9 9 3 4 7 8 9 8 2 0 6 -4 9 -8z m2159
-7 c-3 -9 -8 -14 -10 -11 -3 3 -2 9 2 15 9 16 15 13 8 -4z m-23 -15 c0 -5 -2
-10 -4 -10 -3 0 -8 5 -11 10 -3 6 -1 10 4 10 6 0 11 -4 11 -10z m40 -20 c0 -5
-4 -10 -10 -10 -5 0 -10 5 -10 10 0 6 5 10 10 10 6 0 10 -4 10 -10z m-35 -97
c-17 -16 -18 -16 -6 -1 14 19 6 42 -11 32 -7 -5 -8 -2 -3 5 6 10 11 9 23 -3
15 -15 15 -17 -3 -33z m-2191 -29 c3 -8 2 -12 -4 -9 -6 3 -10 10 -10 16 0 14
7 11 14 -7z m2221 7 c3 -5 0 -13 -6 -17 -7 -4 -9 -3 -5 4 3 5 0 13 -6 15 -9 4
-10 6 -1 6 6 1 14 -3 18 -8z m40 -31 c1 -20 -2 -27 -9 -21 -6 5 -19 7 -28 6
-10 -2 -18 1 -18 6 0 9 15 13 34 10 5 -1 6 5 3 13 -6 15 2 30 12 21 2 -3 5
-19 6 -35z m-2295 -22 c0 -4 -8 -12 -18 -17 -14 -8 -17 -5 -17 19 -1 24 1 26
17 16 10 -6 18 -14 18 -18z m37 3 c0 -11 -5 -18 -9 -15 -4 3 -5 11 -1 19 7 21
12 19 10 -4z m2202 -19 c8 -15 6 -18 -14 -18 -13 0 -21 4 -19 8 3 5 10 5 16 2
7 -5 9 -1 5 9 -9 23 0 22 12 -1z m38 1 c-4 -3 -2 -12 4 -19 7 -8 6 -14 -2 -20
-8 -4 -9 -3 -5 4 4 7 2 12 -3 12 -6 0 -11 7 -11 15 0 8 5 15 12 15 6 0 8 -3 5
-7z m-2257 -7 c0 -2 -7 -7 -16 -10 -8 -3 -12 -2 -9 4 6 10 25 14 25 6z m65 -6
c3 -6 -1 -7 -9 -4 -18 7 -21 14 -7 14 6 0 13 -4 16 -10z m2155 -24 c0 -2 -6
-9 -14 -15 -11 -9 -16 -9 -22 0 -4 7 -3 9 4 5 6 -3 13 -2 17 4 6 10 15 14 15
6z m9 -40 c-9 -8 -10 -7 -5 7 3 10 7 24 7 30 1 7 3 4 6 -7 3 -10 -1 -23 -8
-30z m50 8 c-6 -8 -8 -14 -4 -14 4 0 2 -7 -5 -15 -7 -8 -16 -15 -21 -15 -5 0
-9 7 -9 15 0 8 5 15 12 15 6 0 8 3 5 7 -10 9 13 34 25 27 5 -3 4 -12 -3 -20z
m-59 -69 c0 -2 -9 -3 -19 -2 -11 0 -18 5 -15 9 4 6 34 0 34 -7z m-2205 -35 c3
-6 -1 -7 -9 -4 -18 7 -21 14 -7 14 6 0 13 -4 16 -10z m-23 -32 c-7 -7 -12 -8
-12 -2 0 14 12 26 19 19 2 -3 -1 -11 -7 -17z m2238 -6 c0 -4 -9 -13 -20 -19
-14 -9 -21 -10 -26 -1 -4 7 -3 8 5 4 6 -4 14 0 17 8 6 16 24 22 24 8z m-2196
-40 c3 -5 -1 -9 -9 -9 -8 0 -12 4 -9 9 3 4 7 8 9 8 2 0 6 -4 9 -8z m-24 -42
c8 -5 11 -10 5 -10 -5 0 -17 5 -25 10 -8 5 -10 10 -5 10 6 0 17 -5 25 -10z
m2190 -20 c0 -5 -2 -10 -4 -10 -3 0 -8 5 -11 10 -3 6 -1 10 4 10 6 0 11 -4 11
-10z m23 -5 c-3 -9 -8 -14 -10 -11 -3 3 -2 9 2 15 9 16 15 13 8 -4z m-2183
-11 c0 -8 -19 -13 -24 -6 -3 5 1 9 9 9 8 0 15 -2 15 -3z m2221 -32 c9 2 14 -8
15 -27 1 -16 2 -33 3 -37 2 -14 1 -18 -5 -17 -4 0 -11 -5 -16 -13 -7 -10 -8
-9 -4 5 3 9 1 17 -4 17 -6 0 -10 5 -10 11 0 5 5 7 10 4 6 -3 10 1 10 9 0 9 -6
15 -12 14 -7 -2 -12 5 -12 15 1 9 -2 17 -7 17 -5 0 -9 5 -9 11 0 8 4 8 14 0 8
-6 20 -10 27 -9z m-2227 -22 c-6 -6 -10 -3 -10 10 0 13 4 16 10 10 7 -7 7 -13
0 -20z m2180 4 c3 -8 2 -12 -4 -9 -6 3 -10 10 -10 16 0 14 7 11 14 -7z m-2180
-32 c3 -5 -1 -9 -9 -9 -8 0 -12 4 -9 9 3 4 7 8 9 8 2 0 6 -4 9 -8z m2189 -7
c-3 -9 -8 -14 -10 -11 -3 3 -2 9 2 15 9 16 15 13 8 -4z m-23 -15 c0 -5 -2 -10
-4 -10 -3 0 -8 5 -11 10 -3 6 -1 10 4 10 6 0 11 -4 11 -10z m-2190 -20 c8 -5
11 -10 5 -10 -5 0 -17 5 -25 10 -8 5 -10 10 -5 10 6 0 17 -5 25 -10z m2230 0
c0 -5 -4 -10 -10 -10 -5 0 -10 5 -10 10 0 6 5 10 10 10 6 0 10 -4 10 -10z
m-2200 -36 c0 -8 -19 -13 -24 -6 -3 5 1 9 9 9 8 0 15 -2 15 -3z m2165 -61
c-17 -16 -18 -16 -6 -1 14 19 6 42 -11 32 -7 -5 -8 -2 -3 5 6 10 11 9 23 -3
15 -15 15 -17 -3 -33z m30 -22 c3 -5 0 -13 -6 -17 -7 -4 -9 -3 -5 4 3 5 0 13
-6 15 -9 4 -10 6 -1 6 6 1 14 -3 18 -8z m40 -31 c1 -20 -2 -27 -9 -21 -6 5
-19 7 -28 6 -10 -2 -18 1 -18 6 0 9 15 13 34 10 5 -1 6 5 3 13 -6 15 2 30 12
21 2 -3 5 -19 6 -35z m-56 -38 c8 -15 6 -18 -14 -18 -13 0 -21 4 -19 8 3 5 10
5 16 2 7 -5 9 -1 5 9 -9 23 0 22 12 -1z m38 1 c-4 -3 -2 -12 4 -19 7 -8 6 -14
-2 -20 -8 -4 -9 -3 -5 4 4 7 2 12 -3 12 -6 0 -11 7 -11 15 0 8 5 15 12 15 6 0
8 -3 5 -7z m-2242 -13 c3 -6 -1 -7 -9 -4 -18 7 -21 14 -7 14 6 0 13 -4 16 -10z
m2205 -24 c0 -2 -6 -9 -14 -15 -11 -9 -16 -9 -22 0 -4 7 -3 9 4 5 6 -3 13 -2
17 4 6 10 15 14 15 6z m9 -40 c-9 -8 -10 -7 -5 7 3 10 7 24 7 30 1 7 3 4 6 -7
3 -10 -1 -23 -8 -30z m50 8 c-6 -8 -8 -14 -4 -14 4 0 2 -7 -5 -15 -7 -8 -16
-15 -21 -15 -5 0 -9 7 -9 15 0 8 5 15 12 15 6 0 8 3 5 7 -10 9 13 34 25 27 5
-3 4 -12 -3 -20z m-2326 -41 c-6 -14 -4 -14 19 1 24 16 24 16 23 -14 -1 -16
-10 -38 -20 -50 -25 -27 -7 -26 24 3 l24 22 -19 -27 c-10 -15 -28 -28 -38 -28
-18 0 -18 -1 -3 -18 20 -22 22 -35 5 -29 -7 2 -18 -3 -24 -11 -10 -13 -11 -12
-9 9 1 13 4 26 5 29 2 3 3 19 4 35 1 17 5 35 9 42 5 8 0 17 -12 25 -15 9 -17
16 -9 25 14 17 29 7 21 -14z m111 19 c3 -5 -1 -9 -9 -9 -8 0 -12 4 -9 9 3 4 7
8 9 8 2 0 6 -4 9 -8z m2156 -47 c0 -2 -9 -3 -19 -2 -11 0 -18 5 -15 9 4 6 34
0 34 -7z m-26 -73 c3 -5 -1 -9 -9 -9 -8 0 -12 4 -9 9 3 4 7 8 9 8 2 0 6 -4 9
-8z m42 -3 c3 -6 1 -16 -6 -22 -10 -9 -12 -8 -7 5 3 9 1 19 -6 22 -9 3 -9 5 0
5 6 1 15 -4 19 -10z m-2200 -21 c4 -6 3 -8 -4 -4 -15 9 -42 -32 -35 -53 7 -17
5 -16 -17 13 -10 13 -10 17 -2 12 6 -4 12 -3 12 3 0 9 27 41 35 41 2 0 7 -5
11 -12z m2194 -73 c0 -2 -6 -5 -13 -8 -8 -3 -14 1 -14 8 0 7 6 11 14 8 7 -3
13 -6 13 -8z m-2194 -19 c1 -7 -4 -13 -12 -13 -9 0 -11 4 -4 12 5 7 8 15 5 18
-3 4 -2 5 2 2 4 -3 8 -11 9 -19z m2204 -49 c21 -17 23 -37 5 -57 -8 -9 -13
-20 -10 -23 3 -4 -1 -2 -8 3 -6 6 -12 14 -12 18 -1 4 -6 18 -14 32 l-12 25 20
-25 21 -25 -3 25 c-1 14 -9 28 -17 32 -13 6 -13 7 0 7 8 0 22 -5 30 -12z
m-2269 -40 c12 -22 12 -22 -10 -3 -11 11 -21 23 -21 28 0 14 19 -1 31 -25z
m2204 24 c-9 -8 -36 -10 -30 -2 2 4 11 8 20 8 8 0 13 -3 10 -6z m-2065 -21 c8
-5 11 -10 5 -10 -5 0 -17 5 -25 10 -8 5 -10 10 -5 10 6 0 17 -5 25 -10z m-20
-16 c0 -8 -19 -13 -24 -6 -3 5 1 9 9 9 8 0 15 -2 15 -3z m66 -26 c4 -7 3 -8
-4 -4 -7 4 -12 2 -12 -5 0 -7 -3 -10 -6 -6 -6 5 3 27 11 27 2 0 7 -5 11 -12z
m65 -1 c-6 -8 -9 -16 -7 -18 2 -2 -2 -10 -10 -17 -8 -7 -14 -9 -14 -5 0 11 29
53 37 53 3 0 0 -6 -6 -13z m114 4 c3 -5 2 -12 -3 -15 -5 -3 -9 1 -9 9 0 17 3
19 12 6z m1739 1 c3 -5 -1 -9 -9 -9 -8 0 -12 4 -9 9 3 4 7 8 9 8 2 0 6 -4 9
-8z m-1897 -32 c-2 -25 -23 -34 -23 -10 0 10 4 16 8 14 4 -3 8 0 8 5 0 6 2 11
4 11 3 0 4 -9 3 -20z m75 8 c-7 -7 -12 -16 -12 -22 0 -6 5 -5 12 2 15 15 28
16 28 2 0 -5 -3 -9 -7 -9 -5 1 -10 0 -13 -1 -20 -7 -41 -7 -47 2 -3 6 -1 8 5
4 6 -3 13 3 17 14 3 11 11 20 18 20 8 0 8 -3 -1 -12z m188 8 c0 -3 -4 -8 -10
-11 -5 -3 -10 -1 -10 4 0 6 5 11 10 11 6 0 10 -2 10 -4z m300 0 c0 -2 -7 -7
-16 -10 -8 -3 -12 -2 -9 4 6 10 25 14 25 6z m180 0 c0 -3 -4 -8 -10 -11 -5 -3
-10 -1 -10 4 0 6 5 11 10 11 6 0 10 -2 10 -4z m300 0 c0 -2 -7 -7 -16 -10 -8
-3 -12 -2 -9 4 6 10 25 14 25 6z m180 0 c0 -3 -4 -8 -10 -11 -5 -3 -10 -1 -10
4 0 6 5 11 10 11 6 0 10 -2 10 -4z m581 -13 c13 -16 12 -17 -3 -4 -10 7 -18
15 -18 17 0 8 8 3 21 -13z m-1421 -27 c0 -11 -19 -15 -25 -6 -3 5 1 10 9 10 9
0 16 -2 16 -4z m480 0 c0 -11 -19 -15 -25 -6 -3 5 1 10 9 10 9 0 16 -2 16 -4z
m480 0 c0 -11 -19 -15 -25 -6 -3 5 1 10 9 10 9 0 16 -2 16 -4z"/>
<path d="M2441 2126 c-7 -8 -8 -17 -3 -20 6 -3 15 1 21 8 7 8 8 17 3 20 -6 3
-15 -1 -21 -8z"/>
<path d="M139 2058 c7 -10 11 -24 8 -32 -4 -10 -1 -13 9 -9 20 7 18 17 -8 39
-18 15 -20 16 -9 2z"/>
<path d="M153 1929 c-15 -6 -21 -13 -16 -24 5 -15 8 -14 26 4 25 24 21 32 -10
20z"/>
<path d="M149 1867 c0 -1 -2 -10 -4 -19 -3 -15 0 -16 16 -8 10 6 19 12 19 14
0 4 -30 17 -31 13z"/>
<path d="M2443 1483 c-17 -6 -17 -20 0 -20 8 0 14 6 14 14 0 7 -1 13 -1 12 -1
0 -7 -3 -13 -6z"/>
<path d="M155 1410 c-3 -5 -2 -10 4 -10 5 0 13 5 16 10 3 6 2 10 -4 10 -5 0
-13 -4 -16 -10z"/>
<path d="M149 1388 c0 -2 -2 -11 -4 -21 -3 -18 -3 -18 16 -1 10 9 19 19 19 21
0 3 -30 4 -31 1z"/>
<path d="M2443 843 c-17 -6 -17 -20 0 -20 8 0 14 6 14 14 0 7 -1 13 -1 12 -1
0 -7 -3 -13 -6z"/>
<path d="M155 450 c-3 -5 -2 -10 4 -10 5 0 13 5 16 10 3 6 2 10 -4 10 -5 0
-13 -4 -16 -10z"/>
<path d="M149 428 c0 -2 -2 -11 -4 -21 -3 -18 -3 -18 16 -1 10 9 19 19 19 21
0 3 -30 4 -31 1z"/>
<path d="M136 342 c-3 -5 1 -9 9 -9 8 0 12 4 9 9 -3 4 -7 8 -9 8 -2 0 -6 -4
-9 -8z"/>
<path d="M2424 176 c4 -10 1 -26 -6 -35 -11 -14 -10 -14 6 0 15 14 16 20 6 35
-11 18 -11 18 -6 0z"/>
<path d="M1267 2493 c5 -12 3 -14 -8 -9 -8 4 -4 -1 9 -12 12 -11 18 -23 12
-25 -6 -3 -5 -4 1 -3 20 4 19 41 -1 54 -16 10 -18 9 -13 -5z"/>
<path d="M1337 2486 c-15 -17 -17 -18 -13 -3 3 11 2 15 -4 12 -6 -3 -10 -13
-10 -21 0 -11 6 -13 21 -9 15 5 19 4 14 -5 -6 -9 -3 -9 13 -1 25 13 35 14 28
2 -4 -5 2 -8 11 -6 10 1 24 -2 30 -7 9 -7 15 -6 19 5 3 9 14 14 27 12 l22 -4
-22 18 c-12 10 -19 22 -15 26 4 4 -3 1 -15 -6 -13 -8 -23 -18 -23 -23 0 -4 7
-3 15 4 9 8 15 9 15 2 0 -6 -5 -14 -12 -18 -12 -8 -40 24 -32 37 3 5 0 9 -6 9
-7 0 -9 -8 -4 -22 6 -21 6 -22 -12 -8 -10 8 -21 18 -24 21 -3 4 -13 -3 -23
-15z m28 -6 c3 -5 1 -10 -4 -10 -6 0 -11 5 -11 10 0 6 2 10 4 10 3 0 8 -4 11
-10z"/>
<path d="M370 2485 c0 -8 4 -15 10 -15 5 0 7 7 4 15 -4 8 -8 15 -10 15 -2 0
-4 -7 -4 -15z"/>
<path d="M497 2483 c5 -15 3 -16 -8 -5 -7 6 -17 12 -23 12 -5 0 -2 -6 9 -13
18 -14 13 -43 -6 -32 -5 4 -9 1 -9 -5 0 -8 7 -9 18 -5 9 4 23 8 30 8 8 0 9 4
3 10 -5 5 -7 15 -5 22 3 7 1 16 -5 20 -7 4 -8 -1 -4 -12z"/>
<path d="M1100 2493 c5 -2 8 -9 5 -13 -3 -5 -1 -11 4 -14 5 -4 8 2 7 11 -2 9
-8 18 -15 19 -6 1 -7 0 -1 -3z"/>
<path d="M1130 2481 c0 -15 6 -19 27 -17 31 4 41 21 18 30 -9 3 -14 2 -11 -3
3 -5 -1 -12 -10 -15 -12 -4 -15 -2 -10 9 3 8 1 15 -4 15 -6 0 -10 -9 -10 -19z"/>
<path d="M1580 2493 c5 -2 8 -9 5 -13 -3 -5 -1 -11 4 -14 5 -4 8 2 7 11 -2 9
-8 18 -15 19 -6 1 -7 0 -1 -3z"/>
<path d="M230 2481 c0 -6 4 -13 10 -16 6 -3 7 1 4 9 -7 18 -14 21 -14 7z"/>
<path d="M274 2474 c-18 -14 -18 -15 4 -4 12 6 22 13 22 15 0 8 -5 6 -26 -11z"/>
<path d="M2375 2481 c-3 -5 -2 -12 3 -15 5 -3 9 1 9 9 0 17 -3 19 -12 6z"/>
<path d="M1560 2434 c0 -8 5 -12 10 -9 6 4 8 11 5 16 -9 14 -15 11 -15 -7z"/>
<path d="M258 2418 c-7 -4 -9 -8 -4 -8 5 0 2 -7 -5 -17 -13 -15 -11 -15 19 1
17 9 32 20 32 25 0 10 -26 10 -42 -1z"/>
<path d="M1391 2421 c-10 -7 -10 -10 -1 -16 6 -4 16 -3 22 3 13 13 -4 23 -21
13z"/>
<path d="M2450 2364 c1 -13 29 -48 34 -43 2 2 -4 15 -15 28 -10 13 -19 19 -19
15z"/>
<path d="M2390 2340 c0 -5 5 -10 10 -10 6 0 10 5 10 10 0 6 -4 10 -10 10 -5 0
-10 -4 -10 -10z"/>
<path d="M190 2325 c0 -8 2 -15 4 -15 2 0 6 7 10 15 3 8 1 15 -4 15 -6 0 -10
-7 -10 -15z"/>
<path d="M2404 2304 c9 -8 14 -20 11 -25 -7 -10 8 -12 18 -2 8 7 -21 43 -35
43 -5 0 -2 -7 6 -16z"/>
<path d="M174 2282 c3 -6 -3 -16 -14 -22 -13 -7 -20 -7 -20 0 0 11 -36 8 -47
-5 -5 -4 -2 -5 5 -1 7 4 12 2 12 -6 0 -10 2 -10 9 1 6 9 11 10 15 2 4 -6 5
-11 1 -11 -3 0 -1 -9 5 -20 11 -21 32 -18 28 3 -1 7 3 22 10 34 9 16 9 24 0
29 -7 4 -8 3 -4 -4z m-17 -54 c2 -17 0 -19 -7 -8 -5 8 -6 18 -4 22 8 12 10 10
11 -14z"/>
<path d="M2473 2239 c-1 -12 4 -19 15 -18 11 0 12 2 4 6 -6 2 -10 9 -7 13 3 5
2 11 -3 14 -4 2 -9 -4 -9 -15z"/>
<path d="M110 2220 c0 -5 5 -10 10 -10 6 0 10 5 10 10 0 6 -4 10 -10 10 -5 0
-10 -4 -10 -10z"/>
<path d="M86 2098 c3 -5 10 -6 15 -3 13 9 11 12 -6 12 -8 0 -12 -4 -9 -9z"/>
<path d="M2490 2042 c0 -5 7 -9 15 -9 8 0 12 4 9 9 -3 4 -9 8 -15 8 -5 0 -9
-4 -9 -8z"/>
<path d="M2457 1964 c2 -7 13 -12 23 -11 10 0 16 7 13 13 -2 7 -13 12 -23 11
-10 0 -16 -7 -13 -13z"/>
<path d="M97 1849 c4 -13 8 -18 11 -10 2 7 -1 18 -6 23 -8 8 -9 4 -5 -13z"/>
<path d="M2495 1860 c3 -5 8 -10 11 -10 2 0 4 5 4 10 0 6 -5 10 -11 10 -5 0
-7 -4 -4 -10z"/>
<path d="M144 1761 c1 -28 2 -29 18 -14 10 9 18 21 18 26 0 6 -3 7 -7 4 -3 -4
-12 -2 -18 3 -10 8 -12 3 -11 -19z"/>
<path d="M2470 1721 c0 -6 -9 -8 -20 -6 -19 4 -20 3 -3 -20 10 -14 25 -24 33
-25 13 0 13 2 1 9 -11 7 -10 10 5 14 16 4 16 5 2 6 -11 1 -15 6 -12 16 4 8 3
15 0 15 -3 0 -6 -4 -6 -9z"/>
<path d="M2490 1722 c0 -5 7 -9 15 -9 8 0 12 4 9 9 -3 4 -9 8 -15 8 -5 0 -9
-4 -9 -8z"/>
<path d="M119 1651 c20 -13 22 -51 3 -80 -10 -17 -12 -26 -4 -29 14 -4 23 -3
20 2 -2 2 6 13 16 25 19 21 19 22 1 35 -12 9 -15 15 -7 20 7 4 12 12 12 17 0
6 -4 8 -9 4 -5 -3 -12 -1 -16 5 -3 5 -12 10 -18 10 -8 0 -7 -4 2 -9z m28 -79
c-10 -10 -14 -22 -10 -27 5 -4 2 -5 -5 -1 -11 6 -10 12 4 27 9 10 19 19 22 19
3 0 -2 -8 -11 -18z"/>
<path d="M110 1599 c0 -5 5 -7 10 -4 6 3 10 8 10 11 0 2 -4 4 -10 4 -5 0 -10
-5 -10 -11z"/>
<path d="M2426 1595 c-3 -9 0 -15 8 -15 7 0 13 7 13 15 0 8 -4 15 -8 15 -4 0
-9 -7 -13 -15z"/>
<path d="M2494 1578 c-4 -7 -4 -10 1 -6 4 4 15 2 24 -5 14 -11 14 -10 2 6 -16
20 -18 21 -27 5z"/>
<path d="M2467 1529 c7 -7 15 -10 18 -7 3 3 -2 9 -12 12 -14 6 -15 5 -6 -5z"/>
<path d="M97 1369 c4 -13 8 -18 11 -10 2 7 -1 18 -6 23 -8 8 -9 4 -5 -13z"/>
<path d="M2500 1346 c0 -2 8 -10 18 -17 15 -13 16 -12 3 4 -13 16 -21 21 -21
13z"/>
<path d="M2430 1321 c0 -6 5 -13 10 -16 6 -3 10 1 10 9 0 9 -4 16 -10 16 -5 0
-10 -4 -10 -9z"/>
<path d="M2495 1220 c3 -5 8 -10 11 -10 2 0 4 5 4 10 0 6 -5 10 -11 10 -5 0
-7 -4 -4 -10z"/>
<path d="M110 1119 c0 -5 5 -7 10 -4 6 3 10 8 10 11 0 2 -4 4 -10 4 -5 0 -10
-5 -10 -11z"/>
<path d="M127 1097 c-14 -23 -15 -32 -5 -38 14 -9 31 -1 23 11 -3 4 2 13 10
20 18 15 19 26 2 33 -7 3 -21 -9 -30 -26z m20 -5 c-10 -10 -14 -22 -10 -27 5
-4 2 -5 -5 -1 -11 6 -10 12 4 27 9 10 19 19 22 19 3 0 -2 -8 -11 -18z"/>
<path d="M2470 1081 c0 -6 -9 -8 -20 -6 -19 4 -20 3 -3 -20 10 -14 25 -24 33
-25 13 0 13 2 1 9 -11 7 -10 10 5 14 16 4 16 5 2 6 -11 1 -15 6 -12 16 4 8 3
15 0 15 -3 0 -6 -4 -6 -9z"/>
<path d="M2490 1082 c0 -5 7 -9 15 -9 8 0 12 4 9 9 -3 4 -9 8 -15 8 -5 0 -9
-4 -9 -8z"/>
<path d="M2426 955 c-3 -9 0 -15 8 -15 7 0 13 7 13 15 0 8 -4 15 -8 15 -4 0
-9 -7 -13 -15z"/>
<path d="M2494 938 c-4 -7 -4 -10 1 -6 4 4 15 2 24 -5 14 -11 14 -10 2 6 -16
20 -18 21 -27 5z"/>
<path d="M97 889 c4 -13 8 -18 11 -10 2 7 -1 18 -6 23 -8 8 -9 4 -5 -13z"/>
<path d="M153 894 c0 -16 13 -19 21 -5 3 5 0 11 -7 14 -8 3 -14 -1 -14 -9z"/>
<path d="M2467 889 c7 -7 15 -10 18 -7 3 3 -2 9 -12 12 -14 6 -15 5 -6 -5z"/>
<path d="M144 801 c1 -28 2 -29 18 -14 10 9 18 21 18 26 0 6 -3 7 -7 4 -3 -4
-12 -2 -18 3 -10 8 -12 3 -11 -19z"/>
<path d="M2500 706 c0 -2 8 -10 18 -17 15 -13 16 -12 3 4 -13 16 -21 21 -21
13z"/>
<path d="M119 691 c20 -13 22 -51 3 -80 -10 -17 -12 -26 -4 -29 14 -4 23 -3
20 2 -2 2 6 13 16 25 19 21 19 22 1 35 -12 9 -15 15 -7 20 7 4 12 12 12 17 0
6 -4 8 -9 4 -5 -3 -12 -1 -16 5 -3 5 -12 10 -18 10 -8 0 -7 -4 2 -9z m28 -79
c-10 -10 -14 -22 -10 -27 5 -4 2 -5 -5 -1 -11 6 -10 12 4 27 9 10 19 19 22 19
3 0 -2 -8 -11 -18z"/>
<path d="M2430 681 c0 -6 5 -13 10 -16 6 -3 10 1 10 9 0 9 -4 16 -10 16 -5 0
-10 -4 -10 -9z"/>
<path d="M110 639 c0 -5 5 -7 10 -4 6 3 10 8 10 11 0 2 -4 4 -10 4 -5 0 -10
-5 -10 -11z"/>
<path d="M2495 580 c3 -5 8 -10 11 -10 2 0 4 5 4 10 0 6 -5 10 -11 10 -5 0 -7
-4 -4 -10z"/>
<path d="M2470 441 c0 -6 -9 -8 -20 -6 -19 4 -20 3 -3 -20 10 -14 25 -24 33
-25 13 0 13 2 1 9 -11 7 -10 10 5 14 16 4 16 5 2 6 -11 1 -15 6 -12 16 4 8 3
15 0 15 -3 0 -6 -4 -6 -9z"/>
<path d="M2490 442 c0 -5 7 -9 15 -9 8 0 12 4 9 9 -3 4 -9 8 -15 8 -5 0 -9 -4
-9 -8z"/>
<path d="M97 409 c4 -13 8 -18 11 -10 2 7 -1 18 -6 23 -8 8 -9 4 -5 -13z"/>
<path d="M2454 360 c0 -16 9 -18 49 -11 14 2 -17 28 -33 28 -9 0 -16 -8 -16
-17z m31 0 c3 -5 1 -10 -4 -10 -6 0 -11 5 -11 10 0 6 2 10 4 10 3 0 8 -4 11
-10z"/>
<path d="M2445 321 c-3 -5 -1 -12 5 -16 6 -4 7 -12 3 -18 -4 -7 -9 -20 -10
-30 -2 -14 1 -16 15 -9 9 5 24 7 32 5 13 -4 13 -3 0 6 -8 5 -17 8 -21 5 -4 -2
-10 0 -13 5 -4 5 5 8 19 6 14 -1 28 2 32 8 3 6 1 7 -4 4 -10 -7 -28 20 -25 36
3 10 -26 9 -33 -2z m24 -15 c9 -11 9 -16 -1 -22 -7 -4 -10 -4 -6 1 4 4 3 14
-3 22 -6 7 -9 13 -6 13 2 0 10 -6 16 -14z"/>
<path d="M2490 318 c0 -4 4 -8 9 -8 6 0 12 4 15 8 3 5 -1 9 -9 9 -8 0 -15 -4
-15 -9z"/>
<path d="M135 280 c-3 -5 -1 -10 5 -10 6 0 9 -4 5 -10 -3 -5 -12 -7 -20 -4 -8
4 -12 11 -8 17 3 6 1 7 -6 3 -16 -10 28 -56 47 -49 9 4 10 9 3 16 -5 5 -7 15
-5 22 7 16 -12 29 -21 15z"/>
<path d="M2473 159 c-1 -12 4 -19 15 -18 11 0 12 2 4 6 -6 2 -10 9 -7 13 3 5
2 11 -3 14 -4 2 -9 -4 -9 -15z"/>
<path d="M115 140 c-3 -5 -1 -10 4 -10 6 0 11 5 11 10 0 6 -2 10 -4 10 -3 0
-8 -4 -11 -10z"/>
<path d="M2450 125 c0 -7 30 -13 34 -7 3 4 -4 9 -15 9 -10 1 -19 0 -19 -2z"/>
<path d="M166 96 c6 -15 4 -17 -6 -11 -9 6 -11 4 -5 -4 5 -9 10 -10 18 -2 8 8
7 14 -2 24 -10 10 -11 8 -5 -7z"/>
<path d="M2396 97 c3 -10 9 -15 12 -12 3 3 0 11 -7 18 -10 9 -11 8 -5 -6z"/>
<path d="M529 78 c-7 -29 -5 -36 7 -31 16 6 18 19 4 28 -5 3 -10 5 -11 3z"/>
<path d="M570 65 c-7 -9 -10 -18 -6 -22 3 -3 6 -2 6 3 0 5 9 10 21 11 18 2 19
0 7 -15 -11 -14 -9 -14 8 1 21 17 22 17 40 0 15 -15 17 -15 12 -2 -4 9 -1 23
5 30 10 11 9 11 -4 1 -15 -11 -48 -10 -68 2 -5 3 -14 -1 -21 -9z"/>
<path d="M803 73 c-7 -2 -13 -9 -13 -14 0 -4 7 -6 15 -3 11 5 14 2 9 -12 -6
-18 -6 -18 8 0 15 19 15 19 26 0 6 -10 12 -14 12 -7 0 13 -27 43 -38 42 -4 0
-13 -3 -19 -6z"/>
<path d="M923 73 c-7 -3 -13 -9 -13 -14 0 -4 7 -5 17 -2 10 4 14 2 9 -5 -3 -6
-1 -14 5 -18 8 -4 9 -3 5 4 -3 6 2 16 13 22 17 8 23 7 33 -9 10 -16 14 -17 25
-5 19 18 7 39 -13 23 -8 -6 -14 -7 -14 -2 0 10 -44 13 -67 6z"/>
<path d="M1050 65 c-7 -9 -10 -18 -6 -22 3 -3 6 -2 6 3 0 5 9 10 21 11 18 2
19 0 7 -15 -11 -14 -9 -14 8 1 21 17 22 17 40 0 15 -15 17 -15 12 -2 -4 9 -1
23 5 30 10 11 9 11 -4 1 -15 -11 -48 -10 -68 2 -5 3 -14 -1 -21 -9z"/>
<path d="M1283 73 c-7 -2 -13 -9 -13 -14 0 -4 7 -6 15 -3 11 5 14 1 9 -12 -5
-18 -5 -18 6 -1 6 9 16 15 21 12 5 -4 6 -11 3 -17 -4 -7 -2 -8 4 -4 15 9 15
12 -4 30 -16 17 -21 18 -41 9z"/>
<path d="M1403 73 c-7 -3 -13 -9 -13 -14 0 -4 7 -5 17 -2 10 4 14 2 9 -5 -3
-6 -1 -14 5 -18 8 -4 9 -3 5 4 -3 6 2 16 13 22 17 8 23 7 33 -9 10 -16 14 -17
25 -5 19 18 7 39 -13 23 -8 -6 -14 -7 -14 -2 0 10 -44 13 -67 6z"/>
<path d="M1530 65 c-7 -9 -10 -18 -6 -22 3 -3 6 -2 6 3 0 5 9 10 20 11 13 1
18 -2 14 -10 -5 -9 -4 -9 6 0 10 9 19 9 34 1 12 -6 18 -7 14 -3 -4 5 -2 15 5
24 10 14 10 14 -4 4 -15 -12 -48 -11 -68 1 -5 3 -14 -1 -21 -9z"/>
<path d="M1763 73 c-20 -7 -15 -23 5 -16 15 6 16 5 2 -13 -14 -19 -14 -19 8 0
20 17 27 15 23 -7 -1 -5 3 -6 9 -2 13 8 13 11 -6 29 -16 17 -21 18 -41 9z"/>
<path d="M1844 72 c-13 -8 -15 -44 -2 -36 5 3 6 10 3 15 -3 5 1 6 9 3 9 -3 16
-1 16 4 0 15 -14 22 -26 14z"/>
<path d="M1889 64 c-9 -12 -10 -17 0 -27 10 -9 11 -8 5 8 -7 18 -6 19 11 5 15
-12 17 -12 10 -1 -6 11 -4 13 8 8 9 -3 19 -1 23 6 4 7 4 9 -1 5 -4 -4 -16 -3
-25 2 -13 7 -22 5 -31 -6z"/>
<path d="M194 62 c4 -3 14 -7 22 -8 9 -1 13 0 10 4 -4 3 -14 7 -22 8 -9 1 -13
0 -10 -4z"/>
<path d="M2026 43 c-6 -14 -5 -15 5 -6 7 7 10 15 7 18 -3 3 -9 -2 -12 -12z"/>
<path d="M2150 51 c0 -6 4 -13 10 -16 6 -3 7 1 4 9 -7 18 -14 21 -14 7z"/>
<path d="M1445 40 c3 -5 8 -10 11 -10 2 0 4 5 4 10 0 6 -5 10 -11 10 -5 0 -7
-4 -4 -10z"/>
<path d="M2100 46 c0 -2 7 -7 16 -10 8 -3 12 -2 9 4 -6 10 -25 14 -25 6z"/>
<path d="M2336 38 c3 -5 10 -6 15 -3 13 9 11 12 -6 12 -8 0 -12 -4 -9 -9z"/>
</g>
</svg>
